Coordinates
version=1
nRows=43
nColumns=12
inDegrees=yes

Units are S.I. units (second, meters, Newtons, ...)
Angles are in degrees

endheader
time	SC_y	SC_z	SC_x	AC_y	AC_z	AC_x	GH_y	GH_z	GH_yy	EL_x	PS_y
       0.0              -30.33          30.17          53.25          41.42         -12.35         -10.44         -141.7          62.99         -120.0          114.5          126.3
  0.007228              -30.33          30.17          53.25          41.42         -12.35         -10.43         -141.7          62.99         -120.0          114.5          126.3
   0.01446              -30.34          30.17          53.25          41.42         -12.34         -10.43         -141.7          62.98         -120.0          114.5          126.2
   0.02168              -30.34          30.16          53.24          41.42         -12.34         -10.43         -141.7          62.97         -119.9          114.5          126.2
   0.02891              -30.34          30.15          53.24          41.42         -12.34         -10.42         -141.6          62.96         -119.9          114.5          126.2
   0.03614              -30.34          30.15          53.24          41.42         -12.34         -10.42         -141.6          62.96         -119.9          114.5          126.2
   0.04337              -30.34          30.14          53.23          41.42         -12.33         -10.41         -141.6          62.95         -119.9          114.5          126.2
    0.0506              -30.34          30.14          53.23          41.42         -12.33         -10.41         -141.6          62.94         -119.8          114.4          126.2
   0.05782              -30.34          30.13          53.22          41.42         -12.33          -10.4         -141.6          62.93         -119.8          114.4          126.1
   0.06505              -30.34          30.12          53.22          41.42         -12.32         -10.39         -141.6          62.92         -119.7          114.4          126.1
   0.07228              -30.34          30.11          53.21          41.42         -12.32         -10.39         -141.6          62.91         -119.7          114.4          126.1
   0.07951              -30.35          30.11           53.2          41.42         -12.31         -10.38         -141.6          62.89         -119.7          114.3          126.1
   0.08674              -30.35           30.1           53.2          41.42         -12.31         -10.37         -141.6          62.88         -119.6          114.3          126.0
   0.09396              -30.35          30.09          53.19          41.42         -12.31         -10.36         -141.5          62.87         -119.6          114.3          126.0
    0.1012              -30.35          30.08          53.18          41.42          -12.3         -10.35         -141.5          62.85         -119.5          114.2          126.0
    0.1084              -30.35          30.06          53.18          41.42         -12.29         -10.34         -141.5          62.83         -119.5          114.2          126.0
    0.1156              -30.36          30.05          53.17          41.42         -12.29         -10.33         -141.5          62.81         -119.4          114.2          125.9
    0.1229              -30.36          30.04          53.16          41.42         -12.28         -10.32         -141.5          62.79         -119.3          114.1          125.9
    0.1301              -30.36          30.02          53.15          41.42         -12.27         -10.31         -141.4          62.77         -119.2          114.1          125.8
    0.1373              -30.36          30.01          53.13          41.42         -12.27          -10.3         -141.4          62.75         -119.2          114.0          125.8
    0.1446              -30.37          29.99          53.12          41.42         -12.26         -10.28         -141.4          62.72         -119.1          114.0          125.7
    0.1518              -30.37          29.97          53.11          41.42         -12.25         -10.26         -141.3          62.69         -119.0          113.9          125.7
     0.159              -30.38          29.94          53.09          41.43         -12.24         -10.24         -141.3          62.66         -118.8          113.8          125.6
    0.1662              -30.38          29.92          53.07          41.43         -12.22         -10.22         -141.3          62.62         -118.7          113.8          125.6
    0.1735              -30.39          29.89          53.05          41.43         -12.21          -10.2         -141.2          62.58         -118.6          113.7          125.5
    0.1807              -30.39          29.86          53.03          41.43         -12.19         -10.18         -141.2          62.54         -118.4          113.6          125.4
    0.1879               -30.4          29.83          53.01          41.43         -12.18         -10.15         -141.1          62.49         -118.3          113.5          125.3
    0.1952               -30.4          29.79          52.98          41.43         -12.16         -10.11         -141.0          62.44         -118.1          113.4          125.2
    0.2024              -30.41          29.75          52.95          41.43         -12.14         -10.08         -141.0          62.37         -117.8          113.2          125.1
    0.2096              -30.42           29.7          52.91          41.44         -12.11         -10.04         -140.9           62.3         -117.6          113.1          124.9
    0.2168              -30.43          29.64          52.87          41.44         -12.09         -9.989         -140.8          62.22         -117.3          112.9          124.8
    0.2241              -30.44          29.58          52.83          41.44         -12.05         -9.935         -140.7          62.13         -117.0          112.7          124.6
    0.2313              -30.46           29.5          52.77          41.44         -12.02         -9.873         -140.6          62.02         -116.6          112.5          124.4
    0.2385              -30.47          29.42          52.71          41.45         -11.97           -9.8         -140.4          61.89         -116.2          112.2          124.1
    0.2457              -30.49          29.31          52.64          41.45         -11.92         -9.715         -140.3          61.74         -115.7          111.9          123.8
     0.253              -30.51          29.19          52.56          41.46         -11.87         -9.614         -140.1          61.57         -115.0          111.5          123.5
    0.2602              -30.54          29.05          52.45          41.46          -11.8         -9.495         -139.8          61.36         -114.3          111.1          123.1
    0.2674              -30.57          28.88          52.33          41.47         -11.71         -9.352         -139.5          61.12         -113.5          110.6          122.6
    0.2747              -30.61          28.68          52.19          41.48         -11.61         -9.179         -139.2          60.82         -112.4          109.9          122.1
    0.2819              -30.65          28.43          52.01          41.49         -11.49         -8.968         -138.8          60.45         -111.1          109.1          121.4
    0.2891              -30.71          28.11          51.79           41.5         -11.33         -8.707         -138.3           60.0         -109.6          108.2          120.5
    0.2963              -30.78          27.73          51.51          41.52         -11.14         -8.382         -137.6          59.44         -107.6          107.0          119.4
    0.3036              -30.87          27.24          51.16          41.54          -10.9         -7.972         -136.8          58.73         -105.1          105.5          118.0
